<?xml version="1.0" encoding="UTF-8"?>
<svg id="Layer_2" data-name="Layer 2" xmlns="http://www.w3.org/2000/svg" viewBox="0 0 1700.79 1700.8">
  <defs>
    <style>
      .cls-1 {
        fill: none;
        stroke: #020503;
        stroke-miterlimit: 10;
      }

      .cls-2 {
        fill: #fff;
      }

      .cls-3 {
        fill: #0e4b22;
      }

      .cls-4 {
        fill: #3c5f4b;
      }
    </style>
  </defs>
  <g id="Calque_1" data-name="Calque 1">
    <g>
      <path class="cls-2" d="M1700.79,850.4c0,469.66-380.73,850.4-850.4,850.4S0,1320.06,0,850.4,380.73,0,850.39,0s850.4,380.74,850.4,850.4"/>
      <circle class="cls-1" cx="850.39" cy="850.4" r="850.4" transform="translate(-352.25 850.4) rotate(-45)"/>
      <path class="cls-3" d="M848.96,41.25c366.11,0,676.18,244.31,775.92,578.42h42.06C1565.99,263.01,1237.51.93,848.96.93S131.92,263.01,30.97,619.67h42.06C172.77,285.56,482.84,41.25,848.96,41.25"/>
      <path class="cls-3" d="M848.96,1660.46c-365.16,0-674.58-243.03-775.14-575.81H31.73c101.81,355.33,429.63,616.14,817.23,616.14s715.42-260.81,817.23-616.14h-42.08c-100.57,332.78-409.98,575.81-775.14,575.81"/>
      <path class="cls-3" d="M636,765.67l-21.76,4.04c-1,4.23-3.96,21.44-4.35,28.39l-6.72,121.29c-.85,17.36-3.64,67.05-3.64,67.05l-46.98,4.24-97.59-146.81-5.1,89.32c-.85,17.38.87,36.57.85,40.02l21.1.18-3.14,26.55s-17.66-.13-56.07,3.34c-16.11,1.46-33.1,4.71-33.1,4.71l-.45-24.16,21.92-6.13c1.02-3.9,4.47-23.22,4.54-30.15l6.71-121.25c1.21-17.42-.33-34.56-.67-38.34l-20.97-2.25,2.84-26.18s16.6.23,33.07-1.25l35.32-3.19,5.76,6.4s21.74,41.61,26.19,48.81l66.41,100.13,5.35-97.95c.59-12.85-.53-32.81-1.02-38.31l-20.95-2.25,3.18-26.19,33.42-1.3c27.1-2.46,55.76-6.76,55.76-6.76l.09,28.01Z"/>
      <path class="cls-3" d="M787.45,857.13c5.87,65.17-33.99,121.65-88.85,126.59-36.36,3.28-58.23-16.87-61.97-58.38-5.87-65.15,34.32-121.68,88.86-126.6,36.69-3.31,58.22,16.91,61.96,58.39M686.57,919.46c1.89,20.92,9.81,32.32,20.45,31.37,24.35-2.19,35.33-33.97,30.47-87.81-1.88-20.92-9.83-32.32-20.12-31.39-24.71,2.23-35.67,34-30.81,87.83"/>
      <path class="cls-3" d="M975.75,782.43c-9.52,55.47-16.74,102.13-16.21,142.54l26.99-.04.26,18.32-67.65,20.59-12.55-5.06c5.73-20.58,14.01-51.73,15.32-75.37-13.11,38.52-37.76,83.6-78.91,87.31-17.83,1.61-28.52-9.53-29.97-25.65-2.8-30.85,9.98-77.3,8.82-120.76l-23.79.75-1.58-17.82,64.15-20.66,14.6,8.37c-8.26,42.59-17.12,93.86-15.26,114.43.57,6.52,2.03,15.03,8.53,14.46,9.28-.84,18.38-11,26.72-25.91,13.33-24.73,24.09-62.68,27.86-93.79.55-5.59,1.04-11.51,1.24-17.07l38.88-9.72,12.56,5.1Z"/>
      <path class="cls-3" d="M1131.78,763.89l9.78,12.61-8.92,66.12-18.96.69-3.2-31.84c-17.09,9.82-39.24,51.91-47.29,93.1l-1.91,40.28-39.22,9.74-12.22-5.11c10.92-63.24,14.75-105.07,14.07-143.37l-23.45.72-1.62-17.83,64.19-20.65,14.23,8.38c-9.68,30.62-14.02,47.62-16.79,70.69,15.59-45.67,43.37-82.76,62.58-84.48,2.41-.22,4.86.25,8.73.95"/>
      <path class="cls-3" d="M1322.26,913.01l-67.63,20.62-12.56-5.07s13.94-48.65,15.65-75.76c-16.54,46.78-43.55,84.48-76.83,87.49-19.57,1.75-29.81-23.93-32.22-50.7-5.33-58.99,28.25-131.5,68.02-135.1,11.67-1.04,36.17,2.27,46.24,2.76l27.17-9.37,14.58,8.38c-6.9,42.45-12.02,85.44-9.65,138.48h26.95s.27,18.28.27,18.28ZM1250.97,797.05c-9.94-2.92-24.83-6.75-36.83-5.68-12.01,1.09-22.16,41.76-18.56,81.9,1.08,12,3.26,20.79,11.15,20.08,15.09-1.35,40.42-46.49,44.23-96.29"/>
      <path class="cls-3" d="M816.3,578.85c-.49-5.34.53-10.23,3.07-14.67,2.53-4.46,5.86-8.31,10.02-11.63,4.16-3.32,8.83-5.94,14.06-7.94,5.21-2,10.25-3.23,15.13-3.66,3.24-.29,6.42-.22,9.52.2,3.08.41,4.7,1.57,4.87,3.44.11,1.14-.88,3.08-3,5.72-2.11,2.65-5.75,5.13-10.93,7.49-.89.53-2.32,1.5-4.29,2.85-2,1.37-3.97,2.88-5.93,4.57-1.97,1.7-3.67,3.54-5.13,5.57-1.45,2-2.11,3.81-1.96,5.42.28,3.05,3.78,5.55,10.51,7.5,6.74,1.99,14.78,2.55,24.07,1.71,6.75-.61,13.64-2.06,20.71-4.32,7.04-2.3,13.42-5.14,19.08-8.57,5.67-3.46,10.22-7.56,13.64-12.33,3.43-4.75,4.93-9.91,4.41-15.51-.45-5.1-2.25-9.28-5.34-12.54-3.1-3.21-6.97-5.8-11.61-7.72-4.63-1.94-9.6-3.35-14.96-4.27-5.36-.93-10.5-1.46-15.44-1.61-4.95-.13-9.27-.09-13,.12-3.73.22-6.17.37-7.34.47-8.83.8-18.21,2.54-28.18,5.18-9.98,2.68-19.72,6.25-29.28,10.75-9.56,4.47-18.62,9.81-27.21,15.98-8.58,6.16-15.98,13.09-22.2,20.79-6.22,7.72-10.99,16.1-14.25,25.2-3.3,9.08-4.47,18.85-3.52,29.32.9,10.01,3.63,18.77,8.19,26.33,4.56,7.54,10.23,14.1,17.04,19.55,6.83,5.5,14.5,9.96,23.01,13.41,8.53,3.45,17.26,6.12,26.2,7.99,8.97,1.89,17.8,3.09,26.54,3.58,8.7.53,16.79.45,24.22-.23,17.2-1.55,34.23-5.03,51.11-10.42,16.83-5.37,32.97-12.63,48.31-21.75,9.35-5.52,15.86-8.88,19.49-10.02,3.65-1.14,5.54-1.14,5.64.01.23,2.58-.95,5.14-3.55,7.72-2.56,2.58-6.37,5.86-11.4,9.81-17.94,14.27-37.19,25.55-57.78,33.88-20.58,8.3-41.33,13.39-62.25,15.27-13.25,1.18-27.82.39-43.62-2.41-15.86-2.78-30.73-7.83-44.63-15.13-13.89-7.3-25.79-17.06-35.68-29.29-9.9-12.23-15.64-27.2-17.24-44.85-1.77-19.79,1.52-37.94,9.86-54.51,8.34-16.58,19.66-30.9,33.92-42.96,14.27-12.06,30.44-21.79,48.54-29.18,18.07-7.35,36.07-11.87,53.97-13.48,9.77-.86,20.38-.77,31.85.32,11.46,1.07,22.29,3.59,32.5,7.6,10.21,4,18.91,9.77,26.18,17.35,7.22,7.54,11.4,17.35,12.48,29.43.88,9.78-1.16,18.81-6.17,27.12-4.98,8.3-11.68,15.46-20.04,21.5-8.36,6.03-17.65,10.9-27.86,14.63-10.21,3.72-20.09,6.03-29.62,6.89-7.44.68-14.87.59-22.33-.27-7.46-.84-14.25-2.7-20.36-5.56-6.13-2.82-11.16-6.65-15.11-11.46-3.94-4.78-6.25-10.92-6.91-18.37"/>
      <path class="cls-3" d="M975.62,540.59c-.51-5.56.65-9.58,3.48-12.08,2.83-2.48,5.99-3.76,9.5-3.83,3.51-.08,6.72.91,9.6,2.98,2.89,2.1,4.15,5.03,3.77,8.82-.31,1.67-.46,5.78-.46,12.36s-.03,14.52-.14,23.9c-.09,9.39-.05,19.69.16,30.94.17,11.23.43,22.34.71,33.32,2.24-6.29,4.79-12.44,7.66-18.44,2.86-5.99,5.1-10.35,6.72-13.09,1.65-2.47,4.18-4.52,7.54-6.13,3.38-1.57,6.7-2.47,9.96-2.64,3.27-.17,5.97.4,8.07,1.72,2.11,1.35,2.73,3.7,1.86,7.05-.49,2.16-.94,6.59-1.26,13.28-.34,6.74-.48,13.58-.41,20.59.03,7.06.38,13.35.98,18.91.63,5.59,1.52,8.3,2.68,8.2,1.4-.13,3.05-1.91,4.97-5.4,1.92-3.42,3.82-7.52,5.75-12.27,1.91-4.73,3.58-9.57,5.01-14.5,1.45-4.91,2.47-8.96,3.14-12.06.53-2.17,1.48-3.65,2.94-4.49,1.45-.84,2.89-1.19,4.31-1.09,1.39.11,2.64.78,3.7,1.98,1.02,1.16,1.42,2.84,1.14,4.98-.41,3.33-1.49,8.04-3.3,14.18-1.78,6.14-4.09,12.44-6.9,18.9-2.82,6.48-6.17,12.26-10.02,17.43-3.88,5.16-7.99,8.41-12.31,9.73-4.81,1.39-8.81,1.27-11.99-.34-3.2-1.58-5.78-4.06-7.71-7.4-1.94-3.33-3.41-7.29-4.42-11.91-.99-4.57-1.63-9.1-1.91-13.53-.29-4.43-.31-8.52-.06-12.3.24-3.76.63-6.6,1.16-8.54-1.12.59-2.52,3.34-4.18,8.29-1.64,4.95-3.34,10.47-5,16.62-1.69,6.13-3.19,12.17-4.5,18.18-1.34,5.96-2.03,10.36-1.99,13.17.06.69-.02,1.17-.22,1.44l.3,3.48c.29,3.24-.81,5.89-3.32,7.87-2.53,1.98-5.36,3.17-8.47,3.58-3.15.38-5.97-.07-8.55-1.37-2.6-1.27-3.8-3.7-3.65-7.21-.05-5.86-.15-13.39-.26-22.64-.15-9.24-.33-19.14-.59-29.67-.24-10.52-.5-21.23-.77-32.09-.29-10.85-.61-20.99-.98-30.33-.39-9.33-.69-17.44-.98-24.34-.26-6.89-.5-11.6-.75-14.18"/>
      <path class="cls-3" d="M1122.82,617.34c-1.63,2.74-3.78,5.05-6.43,6.9-2.63,1.91-5.55,3.5-8.69,4.83-3.16,1.33-6.41,2.4-9.74,3.18-3.33.76-6.26,1.38-8.78,1.83-.26,4.94-.24,9.75.06,14.42.3,4.69.92,8.82,1.84,12.49.9,3.65,2.14,6.72,3.62,9.16,1.53,2.45,3.48,3.89,5.85,4.39,3.11.67,6.34-.15,9.65-2.47,3.3-2.27,6.43-5.28,9.36-9.09,2.96-3.78,5.72-8.11,8.31-13.03,2.61-4.93,4.88-9.65,6.82-14.15,1.93-4.51,3.56-8.64,4.86-12.41,1.31-3.73,2.11-6.45,2.45-8.12.5-2.17,1.47-3.66,2.92-4.48,1.47-.86,2.89-1.21,4.31-1.1,1.41.11,2.66.76,3.71,1.98,1.02,1.17,1.4,2.84,1.12,4.98-.33,1.42-.88,4.24-1.7,8.4-.8,4.17-2.06,8.93-3.8,14.25-1.75,5.28-3.96,10.83-6.6,16.58-2.64,5.72-5.97,11.07-9.97,16.02-4.03,4.91-8.75,9.15-14.17,12.7-5.42,3.53-11.61,5.6-18.6,6.24-8.37.77-15.12-1.56-20.3-6.97-5.18-5.37-8.98-12.41-11.4-21.09-2.42-8.69-3.57-18.15-3.41-28.35.13-10.23,1.37-19.86,3.7-28.98,2.33-9.14,5.63-16.8,9.89-23.06,4.25-6.22,9.27-9.6,15.08-10.13,5.58-.52,10.68.95,15.33,4.41,4.66,3.45,8.37,7.61,11.15,12.52,2.8,4.93,4.6,10.01,5.44,15.34.83,5.33.21,9.59-1.84,12.81M1098.39,588.25c-1.56.84-3.04,3.97-4.43,9.36-1.39,5.41-2.55,11.91-3.5,19.5,2.55-.24,5.09-.77,7.59-1.58,2.5-.79,4.25-2.19,5.26-4.15.8-1.49,1.18-3.57,1.18-6.28-.01-2.68-.3-5.4-.93-8.18-.59-2.76-1.38-5.01-2.34-6.79-1-1.8-1.94-2.43-2.82-1.88"/>
      <path class="cls-3" d="M1147.44,640.8c-.3,2.14-1.34,4.1-3.18,5.9-1.81,1.83-3.66,2.96-5.49,3.48-1.81.54-3.5.03-5.06-1.47-1.54-1.52-2.14-4.49-1.86-8.97.08-4.47,1.58-10.06,4.49-16.75,2.91-6.69,6.68-13.45,11.36-20.19,4.65-6.78,10.04-12.92,16.09-18.5,6.06-5.6,12.27-9.5,18.62-11.69,5.49-1.67,10.19-2.04,14.16-1.09,3.95.91,7.15,2.8,9.63,5.61,2.49,2.81,4.26,6.26,5.32,10.24,1.07,4.01,1.44,8.26,1.15,12.74-.31,4.24-1.65,8.88-4.02,13.91-2.37,5.02-5.13,9.92-8.34,14.8-3.19,4.87-6.65,9.44-10.36,13.77-3.72,4.33-7.1,7.79-10.14,10.43,2.66.91,5.21,1.98,7.67,3.16,2.43,1.17,4.79,2.38,7,3.58,4.09-1.53,8.22-2.48,12.39-2.87,2.09-.2,3.77.18,5.04,1.13,1.25.92,1.92,2.1,2.05,3.5.13,1.39-.23,2.66-1.04,3.78-.86,1.16-2.19,1.78-4.06,1.95-.92.09-1.72.22-2.42.39-.69.2-1.37.32-2.08.38,5.68,5.82,9.32,12.44,10.95,19.92,1.6,7.46,1.76,14.96.44,22.46-1.33,7.51-3.95,14.72-7.9,21.62-3.94,6.94-8.62,12.86-14.04,17.8-5.42,4.95-11.43,8.53-18.02,10.77-6.59,2.22-13.25,2.48-19.98.73-6.48-1.75-10.52-6.37-12.14-13.83-1.61-7.49-1.19-15.96,1.23-25.43,2.43-9.47,6.59-19.11,12.52-28.91,5.91-9.78,13.03-17.89,21.38-24.24-3.32-2.76-7.9-4.43-13.85-5.09-3.75-.14-6.4-.86-7.92-2.27-1.53-1.39-2.32-3.07-2.39-5.04-.07-1.99.51-4.21,1.7-6.66,1.17-2.47,2.7-4.95,4.59-7.45,1.88-2.51,4.6-6.71,8.19-12.5,3.57-5.84,6.97-11.78,10.17-17.8,3.2-6.04,5.71-11.46,7.49-16.32,1.8-4.86,1.73-7.53-.17-8.08-1.96-.75-4.99.82-9.09,4.7-4.1,3.86-8.29,8.72-12.6,14.49-4.27,5.76-8.12,11.8-11.53,18.08-3.43,6.29-5.42,11.55-5.95,15.83M1162.53,745.95c3.95-.34,7.81-3.04,11.57-8.06,3.75-5.04,6.85-11,9.29-17.89,2.42-6.91,3.94-14.2,4.52-21.86.6-7.67-.31-14.45-2.71-20.32-6.53,5.51-11.97,12.22-16.29,20.09-4.33,7.9-7.51,15.46-9.56,22.66-2.03,7.21-2.84,13.33-2.38,18.33.45,5.01,2.29,7.35,5.56,7.06"/>
      <path class="cls-3" d="M1202.81,991.07c0-40.23-131.67,90.61-294.12,106.2-162.44,15.57-294.13-62.27-294.13-1.15,0,37.14,115.65,108.79,304.69,93.29,162.64-13.32,283.56-177.24,283.56-198.34"/>
      <path class="cls-4" d="M1373.3,1293.07c52.49-62.17,93.09-132.89,120.48-208.42h-10.74c-26.96,73.13-66.52,141.61-117.45,201.91l7.71,6.51Z"/>
      <path class="cls-4" d="M332.33,1286.57c-50.94-60.31-90.5-128.78-117.45-201.91h-10.75c27.4,75.53,67.99,146.24,120.49,208.42l7.71-6.51Z"/>
      <path class="cls-4" d="M394.33,1334.71c-3.22-3.63-6.38-7.31-9.53-11.03-1,.27-1.71.54-2.14.81-.41.28-.7.59-.88.93-.16.34-.25.79-.26,1.33-.01.54-.09,1.19-.24,1.97-.14,1.5-.76,2.5-1.86,3-1.1.49-2.61.47-4.48-.08-1.62-.87-3.28-2.16-5.04-3.83-1.76-1.67-3.35-3.49-4.82-5.44-1.46-1.98-2.66-3.92-3.58-5.82-.93-1.9-1.38-3.51-1.35-4.82.02-1.31.65-2.16,1.87-2.55,1.23-.38,3.25-.07,6.06.92,1.53.64,2.98,1.04,4.34,1.21,1.39.2,2.77.2,4.16.03,2.06-.22,4.13-.44,6.26-.65,2.11-.23,4.17-.48,6.2-.82,2.02-.33,4-.76,5.94-1.26,1.93-.52,3.78-1.16,5.52-1.94.63-.28,1.11-.68,1.48-1.16.36-.48.7-1.01,1.01-1.54.32-.56.64-1.08.97-1.62.32-.54.71-1.01,1.18-1.39,1.18-.68,2.36-.98,3.57-.92,1.22.05,2.42.33,3.59.85,1.18.53,2.31,1.21,3.36,2.05,1.07.85,2.05,1.73,3.01,2.66,1.65,1.7,3.25,3.4,4.78,5.08,1.53,1.69,2.94,3.42,4.23,5.2,1.3,1.76,2.03,3.52,2.21,5.28.18,1.76-.13,3.45-.93,5.08-1.41,2.36-3.09,4.7-5.03,7.02-1.93,2.32-3.93,4.6-5.96,6.85-2.02,2.25-3.97,4.47-5.83,6.66-1.86,2.19-3.4,4.4-4.58,6.64-.23.46-.39.94-.53,1.46-.15.5-.24,1.02-.34,1.54-.34.93-.86,1.69-1.56,2.26-.69.57-1.49.93-2.42,1.06-.93.11-1.96,0-3.1-.33-1.12-.33-2.27-.91-3.41-1.71-1.58-1.42-3.4-3.14-5.43-5.13-2.02-2.01-3.79-4.03-5.28-6.06-1.49-2.03-2.49-3.95-3.01-5.74-.51-1.82-.07-3.23,1.29-4.27,1.04-.72,2-1.03,2.86-.92.85.11,1.7.31,2.55.55.83.25,1.68.36,2.53.3.83-.05,1.72-.61,2.66-1.69M401.35,1329.7c.46-.48,1.09-1.13,1.89-1.93.8-.79,1.68-1.67,2.64-2.58.94-.92,1.88-1.85,2.87-2.78.97-.94,1.79-1.8,2.52-2.59.72-.8,1.24-1.45,1.6-1.96.33-.49.38-.79.11-.87-.18-.21-.77-.24-1.74-.1-.97.15-2.14.39-3.5.73-1.38.32-2.85.7-4.43,1.11-1.56.41-3.04.82-4.39,1.19-1.35.38-2.51.7-3.47.94-.97.28-1.52.42-1.68.47,2.53,2.82,5.04,5.61,7.58,8.37"/>
      <path class="cls-4" d="M430.56,1387.62c-1.22-.48-2.49-1.13-3.86-1.98-1.34-.86-2.56-1.52-3.61-2-1.78-.9-3.35-1.95-4.71-3.17-1.35-1.22-2.54-2.59-3.55-4.11-.72-1.3-1.11-2.56-1.16-3.77-.06-1.23.14-2.34.56-3.4.42-1.03,1.04-1.99,1.86-2.84.8-.86,1.7-1.61,2.67-2.24,1.88-1.19,3.78-2.3,5.74-3.28,1.94-.99,3.89-2,5.81-3.02,1.45-.95,2.27-2.3,2.54-3.96.11-1.23.63-2.24,1.54-3.08,1.54-1.06,3.5-1.14,5.9-.24,1.38.57,2.76,1.38,4.13,2.41,1.38,1.02,2.53,2.18,3.45,3.43.92,1.26,1.5,2.54,1.75,3.85.26,1.31-.05,2.5-.94,3.62-.34.65-1.1,1.4-2.27,2.29-1.18.87-2.53,1.78-4.03,2.72-1.53.94-3.11,1.87-4.78,2.77-1.67.91-3.13,1.72-4.41,2.47-.57.44-1.09.93-1.57,1.49-.47.54-.78,1.14-.91,1.77-.14.61-.05,1.25.25,1.9.31.65.96,1.27,1.98,1.89,1.17.76,2.38,1.29,3.61,1.55,1.23.26,2.27.11,3.11-.46,1.79-1.26,3.38-2.35,4.8-3.3,1.41-.95,3.03-2.03,4.86-3.27,1.28-.8,2.15-1.95,2.63-3.43.29-1.45,1.14-2.57,2.54-3.34,1.62-1.01,3.49-.99,5.61.1,1.71.76,3.36,1.87,4.99,3.32,1.62,1.47,3.36,3.18,5.23,5.15.78,1.03,1.23,1.97,1.34,2.81.11.84-.06,1.56-.52,2.16-.47.61-1.14,1.07-2,1.44-.86.34-1.88.56-3.11.65-1.08.01-1.98.12-2.68.31-.71.21-1.35.47-1.95.81-.6.33-1.15.71-1.65,1.14-.54.43-1.12.89-1.77,1.38-1.3.89-2.55,1.8-3.77,2.75-1.22.94-2.47,1.86-3.78,2.72-1.15.89-1.68,1.96-1.57,3.23-.05,1.15-.23,2.11-.56,2.86-.31.75-1.21,1.24-2.69,1.47-1.25.14-2.49.09-3.67-.21-1.21-.3-2.35-.88-3.43-1.78-1.94-1.59-3.64-2.96-5.12-4.12-1.46-1.16-2.7-2.65-3.74-4.42-.31-.67-.33-1.24-.09-1.73.24-.49.57-.92,1-1.3"/>
      <path class="cls-4" d="M478.23,1394.88c-.84-1.09-1.4-1.95-1.71-2.58-.31-.61-.1-1.29.63-2.02.48-.4.96-.79,1.45-1.16.48-.37.95-.73,1.39-1.1.4-.23.85-.3,1.32-.22.49.09.99.27,1.49.48.51.23,1.01.52,1.48.83.47.32.86.61,1.17.85,1.23-.9,2.35-1.84,3.39-2.83,1.03-.99,2.17-1.87,3.42-2.63.99-1.08,2.22-1.67,3.66-1.76,1.45-.08,2.92.15,4.39.68,1.47.54,2.87,1.32,4.21,2.3,1.33,1,2.34,2.03,3.05,3.11.69,1.09.99,2.15.86,3.17-.15,1.01-.9,1.85-2.26,2.48-1.79.55-3.27,1.23-4.43,2.08-1.15.84-2.31,1.69-3.46,2.55.18.14.47.34.85.64.39.29.79.59,1.23.92.44.32.85.63,1.26.94.4.3.72.53.94.71.93.56,1.31,1.12,1.16,1.72-.15.6-.6,1.19-1.34,1.83-.45.43-.93.85-1.44,1.23-.48.4-1.06.75-1.7,1.03-1.32.73-2.78.57-4.34-.48-.2-.15-.46-.33-.82-.57-.37-.23-.74-.49-1.09-.77-.38-.29-.73-.55-1.12-.8-.38-.28-.67-.46-.85-.61-2.88,2.08-5.68,4.36-8.42,6.81-2.72,2.48-5.22,4.92-7.46,7.36-.17.4-.15.83.07,1.23.22.41.54.77.98,1.09.43.32.9.55,1.39.68.5.11,1,.11,1.47-.01.32-.03.68-.16,1.03-.33.36-.17.74-.33,1.15-.51.39-.1.69-.08.89.09.21.18.29.45.25.78-.02.33-.16.7-.43,1.08-.26.4-.63.78-1.11,1.12-1.41,1.18-3,1.86-4.75,2-1.77.15-3.57-.08-5.4-.68-1.81-.6-3.56-1.48-5.24-2.65-1.67-1.15-3.09-2.42-4.24-3.79-1.15-1.38-1.95-2.77-2.41-4.18-.46-1.41-.39-2.66.2-3.77.41-1.18,1.37-2.47,2.86-3.86,1.46-1.39,3.15-2.77,5.06-4.18,1.9-1.41,3.85-2.84,5.87-4.26,2.03-1.44,3.85-2.79,5.44-4.04"/>
      <path class="cls-4" d="M524.79,1423.56c1.09.39,2.14.72,3.12,1.03.98.3,1.91.63,2.83.99,1.81.84,3.42,1.78,4.86,2.82,1.44,1.04,2.58,2.16,3.48,3.35.88,1.18,1.46,2.41,1.71,3.69.25,1.25.1,2.5-.45,3.71-.78,1.85-1.81,3.54-3.08,5.06-1.26,1.52-2.62,2.97-4.08,4.36-1.46,1.37-2.95,2.71-4.48,4.02-1.53,1.31-2.93,2.65-4.19,4.03-1,1.06-1.8,1.96-2.4,2.77-.6.8-.94,1.6-1.02,2.41-.08.8.1,1.71.55,2.68.45.98,1.27,2.16,2.47,3.55.49.57.72,1.03.69,1.38-.04.33-.21.57-.54.7-.33.14-.75.16-1.25.08-.51-.09-1.02-.3-1.53-.61-2.91-1.83-5.35-3.69-7.34-5.56-2-1.88-3.3-3.82-3.93-5.82-.63-2.02-.47-4.11.45-6.3.93-2.18,2.85-4.51,5.71-6.99.67-.69,1.42-1.45,2.31-2.26.87-.8,1.75-1.65,2.62-2.52.89-.88,1.65-1.76,2.32-2.64.68-.9,1.15-1.75,1.41-2.58.2-.84-.08-1.65-.86-2.47-.77-.82-1.7-1.38-2.79-1.7-.33-.1-.68-.21-1-.29-.32-.07-.62-.13-.85-.17-.82-.25-1.5-.08-2.09.48-1.4,1.29-2.81,2.57-4.24,3.86-1.42,1.3-2.81,2.57-4.16,3.82-.52.46-.9.92-1.15,1.41-.26.47-.41,1.03-.49,1.68-.02.9-.23,1.71-.59,2.46-.36.76-.96,1.35-1.84,1.8-1.07.71-2.34.9-3.86.52-1.52-.37-3.05-1.04-4.62-2-1.54-.95-3.08-2.08-4.56-3.35-1.48-1.28-2.68-2.42-3.58-3.42-.05-.15-.09-.25-.18-.29-.07-.07-.13-.16-.17-.31-.68-1.31-.82-2.38-.4-3.2.43-.84,1.38-1.52,2.85-2.02.39-.13.8-.24,1.26-.32.46-.08.92-.15,1.41-.22.64-.09,1.28-.26,1.86-.48.6-.22,1.1-.53,1.51-.92,2.84-2.69,5.68-5.24,8.53-7.68,2.85-2.45,5.63-4.97,8.34-7.58.36-.32.79-.73,1.29-1.25.49-.52.95-1.07,1.39-1.64.44-.55.78-1.14,1.04-1.73.27-.57.44-1.09.46-1.53.1-.72.28-1.46.48-2.17.23-.7.56-1.31.99-1.83.41-.52.99-.9,1.72-1.16.74-.29,1.63-.36,2.7-.25,2.15.3,3.96.86,5.47,1.73,1.49.88,3,1.87,4.49,2.99,1.09.84,1.75,1.75,1.99,2.77.23.99.07,2.02-.48,3.07-.68.8-1.42,1.67-2.29,2.57-.85.91-1.74,1.8-2.68,2.7-.92.9-1.83,1.75-2.74,2.56-.9.81-1.71,1.57-2.41,2.23"/>
      <path class="cls-4" d="M557.74,1463.17c-1.64,1.19-2.55,2.48-2.68,3.87-.13,1.39.24,2.6,1.14,3.64.88,1.06,2.11,1.79,3.66,2.23,1.57.43,3.15.31,4.75-.4.02-.15-.08-.34-.28-.57-.21-.25-.32-.52-.36-.8-.34-.34-.44-.6-.24-.77.18-.16.47-.26.85-.31.38-.05.79-.05,1.23.01.44.03.78.13,1.03.26,1.4.4,2.87.96,4.39,1.67,1.52.71,2.82,1.48,3.94,2.34,1.11.85,1.92,1.77,2.39,2.74.48.98.38,1.98-.33,3-2.04,1.79-4.56,2.86-7.51,3.2-2.98.36-6.02.14-9.1-.62-3.1-.77-6.05-2-8.85-3.65-2.81-1.66-5.08-3.56-6.8-5.67-2.24-2.5-3.52-5.04-3.87-7.58-.32-2.54.13-5.02,1.34-7.43,1.14-2.17,2.63-4.17,4.47-5.95,1.85-1.81,3.95-3.27,6.29-4.39,2.34-1.15,4.93-1.85,7.74-2.15,2.79-.29,5.72,0,8.8.87,2.48.82,4.8,1.77,6.98,2.93,2.18,1.15,4.09,2.45,5.71,3.92,1.63,1.47,2.9,3.07,3.85,4.8.93,1.75,1.37,3.56,1.3,5.48-.02,1.19-.28,2.36-.75,3.5-.46,1.14-1.16,2.17-2.11,3.07-1.3,1.1-2.68,1.77-4.08,1.99-1.41.21-3.08-.01-4.97-.72-3.08-1.02-6.15-2.35-9.23-3.99-3.08-1.62-5.97-3.13-8.69-4.51M573.87,1463.91c1.04-.9,1.62-1.82,1.73-2.78.11-.94-.09-1.81-.6-2.62-.51-.79-1.26-1.47-2.26-2.03-1.01-.56-2.09-.9-3.25-1-1.15-.1-2.32.05-3.47.46-1.16.41-2.18,1.21-3.07,2.34.75.4,1.6.85,2.57,1.34.97.49,1.93,1,2.92,1.52.96.52,1.94,1.02,2.92,1.5.96.48,1.8.9,2.5,1.26"/>
      <path class="cls-4" d="M625.85,1515.83c-2.17-.07-4.44-.38-6.78-.93-2.35-.54-4.47-1.32-6.33-2.3-1.86-.99-3.27-2.18-4.26-3.55-.99-1.38-1.22-2.96-.74-4.71.32-1.18.93-2.39,1.88-3.57.95-1.19,2.06-2.39,3.31-3.58,1.25-1.19,2.52-2.38,3.81-3.55,1.29-1.18,2.45-2.32,3.45-3.42,1-1.09,1.77-2.17,2.3-3.24.52-1.05.63-2.03.32-2.92.04-.34-.15-.72-.53-1.14-.37-.4-.86-.8-1.45-1.14-.57-.34-1.18-.64-1.79-.91-.63-.26-1.16-.44-1.61-.52-1.51-.17-2.66.23-3.46,1.23-1.38,1.78-2.68,3.55-3.88,5.35-1.21,1.79-2.55,3.61-4.04,5.43-.39.46-.62.93-.7,1.4-.08.48.1.99.55,1.54.58.83.79,1.68.61,2.54-.18.89-.73,1.64-1.64,2.28-.62.86-1.75,1.25-3.35,1.14-1.61-.1-3.39-.49-5.34-1.18-1.93-.69-3.88-1.54-5.82-2.56-1.96-1.03-3.57-1.99-4.82-2.89-1.27-1.18-1.78-2.32-1.54-3.42.24-1.12,1.24-1.99,3.02-2.62.83-.29,1.76-.51,2.72-.68.98-.16,1.7-.6,2.12-1.29,1.48-2.07,2.94-4.13,4.41-6.2,1.45-2.05,2.96-4.12,4.54-6.2.22-.33.36-.61.44-.83.06-.23-.09-.54-.46-.91-.7-.79-1.01-1.63-.93-2.51.07-.88.38-1.67.95-2.35.57-.71,1.32-1.26,2.25-1.7.93-.43,1.92-.64,2.95-.64,1.94.17,3.71.56,5.36,1.22,1.64.66,3.47,1.55,5.5,2.68.65.45,1.18,1.03,1.6,1.77.39.74.61,1.46.62,2.11,1.03-.17,2.27-.18,3.71-.05,1.45.15,2.91.41,4.41.83,1.48.41,2.96.92,4.42,1.53,1.44.61,2.7,1.29,3.76,2.06,2.2,1.88,3.5,3.81,3.86,5.82.36,2,.17,4-.61,5.95-.77,1.95-1.95,3.85-3.5,5.67-1.6,1.83-3.22,3.51-4.91,5.04-1.62,1.49-3.12,2.93-4.5,4.31-1.37,1.35-2.3,2.62-2.79,3.77-.48,1.15-.38,2.2.31,3.13.71.93,2.32,1.71,4.84,2.32.24.18.36.42.33.72-.02.3-.14.59-.33.86-.21.28-.5.51-.91.67-.41.18-.86.23-1.33.15"/>
      <path class="cls-4" d="M654.33,1492.42c-1.1-.72-1.9-1.33-2.38-1.8-.46-.47-.47-1.17-.02-2.11.3-.54.61-1.08.94-1.57.34-.52.64-1.02.93-1.52.31-.34.7-.57,1.16-.65.46-.08.96-.1,1.5-.07.54.03,1.08.12,1.61.25.53.14.98.26,1.34.39.84-1.26,1.58-2.54,2.23-3.81.63-1.27,1.41-2.48,2.31-3.63.58-1.35,1.52-2.31,2.81-2.89,1.3-.6,2.71-.88,4.24-.88s3.04.24,4.56.7c1.55.46,2.8,1.09,3.8,1.86.96.77,1.57,1.67,1.76,2.66.21,1-.23,2.03-1.29,3.09-1.48,1.12-2.63,2.28-3.42,3.47-.8,1.18-1.58,2.38-2.36,3.57.21.07.53.16.98.31.44.14.91.28,1.41.43.49.16.98.31,1.45.45.47.15.84.25,1.1.33,1.02.22,1.55.62,1.6,1.23.04.61-.17,1.32-.66,2.17-.29.55-.6,1.1-.93,1.65-.33.53-.76,1.04-1.25,1.53-.99,1.16-2.36,1.49-4.15,1.04-.22-.07-.52-.16-.92-.25-.4-.09-.83-.22-1.24-.36-.42-.14-.85-.24-1.29-.36-.43-.11-.75-.22-.96-.28-1.99,2.94-3.85,6.03-5.58,9.25-1.73,3.25-3.26,6.39-4.57,9.45-.02.44.13.8.45,1.1.33.3.74.54,1.24.7.48.16.99.21,1.49.14.5-.07.95-.22,1.33-.51.3-.15.56-.38.85-.65.28-.29.57-.57.91-.87.31-.25.59-.31.84-.23.23.1.39.32.47.64.08.32.06.71-.06,1.17-.11.46-.33.93-.67,1.42-.92,1.58-2.17,2.77-3.76,3.5-1.56.75-3.27,1.15-5.13,1.22-1.87.07-3.75-.16-5.63-.67-1.91-.49-3.58-1.21-5.09-2.09-1.47-.89-2.64-1.91-3.49-3.05-.87-1.16-1.19-2.35-1-3.58.01-1.25.48-2.77,1.41-4.58.91-1.8,2.03-3.69,3.34-5.66,1.3-1.96,2.65-3.97,4.06-6.01,1.39-2.03,2.63-3.92,3.71-5.65"/>
      <path class="cls-4" d="M677.67,1528.88c-.98-.62-1.54-1.25-1.68-1.88-.15-.64-.05-1.28.29-1.92.33-.63.85-1.26,1.54-1.87.7-.61,1.37-1.17,2.06-1.66,1.74-1.08,3.01-2.41,3.81-4,.72-1.31,1.49-2.64,2.27-3.97.78-1.32,1.54-2.66,2.27-4.03.15-.34.3-.68.41-.99.1-.31.24-.62.39-.93.14-.69.1-1.25-.14-1.69-.22-.44-.41-.93-.53-1.5-.58-1.39-.5-2.61.21-3.63.72-1.02,1.99-1.69,3.79-2.03,1.24-.14,2.68-.15,4.32-.02,1.64.13,3.18.4,4.62.85,1.43.45,2.57,1.06,3.42,1.87.85.79,1.09,1.8.72,3.03-.09.52-.45,1.44-1.09,2.78-.67,1.35-1.44,2.88-2.33,4.57-.9,1.71-1.84,3.46-2.82,5.25-.99,1.79-1.82,3.41-2.49,4.85-.72,1.46-.83,2.96-.26,4.47.34.92.4,1.8.15,2.63-.24.84-.71,1.57-1.4,2.16-.7.62-1.57,1.05-2.62,1.31-1.07.26-2.22.26-3.48.03-2.32-.53-4.36-1.01-6.14-1.45-1.78-.44-3.54-1.19-5.28-2.23M710.73,1490.86c.11.85,0,1.65-.35,2.39-.35.75-.87,1.38-1.54,1.93-.67.53-1.47.93-2.43,1.17-.95.24-1.96.31-3,.18-2.03-.38-3.78-1.15-5.24-2.33-1.46-1.17-2.15-2.62-2.07-4.32.04-.76.26-1.47.68-2.11.39-.65.94-1.17,1.63-1.57.7-.4,1.47-.69,2.32-.84.85-.17,1.75-.18,2.7-.01,1.79.31,3.37.94,4.73,1.87,1.35.92,2.22,2.14,2.56,3.64"/>
      <path class="cls-4" d="M742.87,1515.16c-1.92-.6-3.7-.68-5.4-.25-1.69.43-3.19,1.16-4.54,2.21-1.34,1.06-2.5,2.32-3.46,3.79-.96,1.47-1.64,2.99-2.05,4.52-.43,1.57-.49,3.07-.24,4.51.24,1.46.9,2.64,1.94,3.57,1.15.91,2.51,1.34,4.1,1.29,1.6-.06,3-.57,4.21-1.55.7-.63,1.08-1.22,1.15-1.73.07-.5-.22-1.07-.85-1.68-.3-.29-.56-.56-.79-.83-.24-.26-.38-.48-.39-.64-.02-.18.09-.33.35-.48.24-.14.79-.26,1.61-.33,1.77-.3,3.49-.37,5.18-.2,1.68.2,3.11.62,4.27,1.29,1.18.69,1.98,1.6,2.41,2.76.44,1.14.3,2.49-.41,4.05-1.49,2.66-3.42,4.69-5.82,6.02-2.38,1.33-4.97,2.17-7.74,2.47-2.78.31-5.61.17-8.52-.4-2.89-.57-5.64-1.44-8.18-2.55-3.62-1.9-6.13-4.23-7.51-6.95-1.37-2.74-1.77-5.87-1.24-9.38.62-2.62,1.69-5.11,3.23-7.47,1.52-2.35,3.41-4.41,5.66-6.2,2.24-1.77,4.79-3.17,7.62-4.2,2.86-1.04,5.91-1.56,9.19-1.6,1.77.01,3.67.21,5.7.59,2.04.39,3.97.92,5.84,1.64,1.85.71,3.5,1.56,4.93,2.57,1.44,1,2.48,2.12,3.1,3.38.63,1.24.74,2.6.31,4.07-.44,1.46-1.62,3-3.57,4.59-2.95,2.15-6.2,2.65-9.69,1.5-1.54-.53-2.49-1.45-2.84-2.76-.37-1.32,0-2.68,1.04-4.06.28-.23.49-.46.69-.7.17-.22.41-.52.7-.84"/>
      <path class="cls-4" d="M793.78,1522.79c-1.23-.45-2.14-.85-2.71-1.19-.56-.33-.73-1.02-.54-2.04.18-.6.37-1.2.55-1.77.21-.56.38-1.12.55-1.68.21-.41.53-.71.95-.91.44-.2.91-.33,1.44-.44.52-.08,1.07-.13,1.62-.13s.99.03,1.38.07c.51-1.44.92-2.85,1.24-4.24.32-1.38.78-2.76,1.38-4.07.23-1.46.91-2.62,2.03-3.49,1.11-.88,2.4-1.49,3.87-1.85,1.47-.37,2.99-.5,4.57-.41,1.58.1,2.94.39,4.08.92,1.14.53,1.92,1.24,2.34,2.17.42.93.25,2.02-.52,3.3-1.16,1.45-2,2.85-2.48,4.18-.49,1.34-.98,2.68-1.45,4.02.22.01.56.05,1.02.07.46.02.93.06,1.45.09.53.05,1.02.07,1.52.09.48.03.86.06,1.13.08,1.04-.05,1.64.22,1.84.8.18.57.14,1.33-.12,2.26-.14.61-.32,1.21-.52,1.8-.18.61-.47,1.22-.84,1.8-.68,1.33-1.93,2-3.74,2-.22-.02-.54-.03-.95-.03s-.85-.02-1.28-.06c-.45-.02-.88-.03-1.32-.04-.45,0-.78-.02-1-.03-1.23,3.32-2.3,6.76-3.2,10.31-.91,3.56-1.64,6.98-2.18,10.24.09.44.31.77.7.99.38.22.83.34,1.34.38.52.05,1-.02,1.47-.22.48-.17.87-.45,1.17-.8.24-.22.46-.49.67-.84.2-.34.43-.69.67-1.06.25-.32.49-.45.75-.42.26.06.46.22.62.5.15.3.22.69.22,1.16-.01.47-.1.98-.31,1.54-.52,1.76-1.45,3.2-2.79,4.29-1.34,1.09-2.89,1.88-4.67,2.4-1.78.49-3.63.72-5.58.69-1.95-.05-3.72-.32-5.37-.83-1.63-.52-3-1.22-4.1-2.15-1.1-.91-1.68-2-1.78-3.24-.29-1.22-.21-2.8.26-4.78.47-1.96,1.11-4.06,1.9-6.28.79-2.23,1.63-4.5,2.5-6.81.87-2.31,1.62-4.42,2.25-6.36"/>
      <path class="cls-4" d="M849.3,1551.16c-1.15.47-2.47.85-3.93,1.14-1.48.31-2.73.63-3.77.99-1.8.54-3.56.83-5.26.85-1.7.03-3.39-.16-5.05-.6-1.31-.47-2.38-1.12-3.17-1.98-.8-.86-1.38-1.83-1.75-2.87-.37-1.06-.52-2.17-.51-3.36.01-1.17.15-2.32.45-3.46.54-2.14,1.17-4.25,1.87-6.29.73-2.06,1.44-4.12,2.12-6.17.39-1.68.13-3.24-.76-4.63-.68-.98-.97-2.08-.87-3.29.4-1.84,1.7-3.22,3.92-4.18,1.32-.54,2.78-.88,4.38-1.06,1.62-.17,3.12-.11,4.57.2,1.44.31,2.64.85,3.64,1.64,1,.78,1.55,1.89,1.64,3.3.16.71.1,1.79-.14,3.24-.26,1.43-.62,3.01-1.08,4.73-.45,1.72-.98,3.47-1.56,5.26-.58,1.8-1.07,3.39-1.49,4.8-.11.7-.16,1.42-.15,2.16.01.73.17,1.37.48,1.92.31.55.77.95,1.39,1.23.62.25,1.48.28,2.56.04,1.31-.23,2.48-.65,3.5-1.3,1.01-.63,1.64-1.45,1.86-2.44.45-2.14.85-4.02,1.24-5.67.39-1.67.84-3.56,1.31-5.68.39-1.46.26-2.89-.36-4.32-.72-1.26-.83-2.66-.34-4.18.48-1.84,1.8-3.07,3.97-3.72,1.67-.57,3.55-.88,5.59-.91,2.05-.01,4.38.09,6.94.29,1.21.24,2.11.62,2.74,1.18.6.54.95,1.18,1.02,1.95.03.75-.12,1.54-.49,2.38-.38.85-.97,1.7-1.76,2.58-.75.74-1.31,1.42-1.66,2.04-.37.63-.67,1.25-.86,1.91-.2.64-.36,1.29-.44,1.96-.09.67-.21,1.39-.36,2.2-.34,1.52-.64,3.04-.89,4.56-.24,1.53-.53,3.04-.9,4.56-.24,1.41.07,2.57.95,3.45.71.88,1.19,1.7,1.43,2.48.25.77-.06,1.73-.94,2.89-.78.96-1.69,1.73-2.71,2.33-1.02.6-2.21.93-3.53,1.01-2.36.13-4.42.25-6.18.39-1.77.13-3.57-.11-5.42-.72-.64-.29-1.02-.7-1.16-1.22-.15-.52-.18-1.06-.13-1.62"/>
      <path class="cls-4" d="M929.65,1552.37c-1.94.95-4.05,1.75-6.35,2.37-2.3.62-4.49.92-6.57.93-2.08,0-3.87-.39-5.37-1.15-1.52-.75-2.45-2.01-2.84-3.78-.3-1.21-.31-2.56-.03-4.05.26-1.49.66-3.07,1.2-4.7.53-1.64,1.07-3.3,1.64-4.94.57-1.64,1.05-3.18,1.4-4.63.36-1.42.53-2.74.48-3.93-.03-1.17-.39-2.09-1.08-2.74-.14-.31-.47-.56-.99-.75-.52-.18-1.12-.29-1.79-.32-.68-.02-1.33-.01-2,.05-.66.06-1.21.16-1.63.3-1.4.56-2.2,1.45-2.42,2.71-.37,2.2-.65,4.39-.87,6.53-.21,2.16-.53,4.4-.96,6.7-.13.59-.1,1.1.03,1.56.16.46.55.83,1.22,1.1.9.45,1.47,1.1,1.71,1.96.24.85.13,1.77-.37,2.76-.14,1.07-.93,1.92-2.39,2.57-1.45.68-3.17,1.16-5.17,1.47-2.01.31-4.09.48-6.25.5-2.18,0-4.03-.09-5.53-.3-1.64-.43-2.62-1.2-2.93-2.29-.31-1.1.16-2.33,1.41-3.72.59-.64,1.28-1.27,2.03-1.88.76-.61,1.17-1.31,1.23-2.11.32-2.54.63-5.05.92-7.54.3-2.5.66-5.05,1.04-7.64.03-.38.02-.68-.01-.92-.05-.23-.33-.43-.83-.59-.97-.37-1.62-.95-1.98-1.77-.34-.8-.44-1.66-.26-2.54.16-.87.55-1.73,1.16-2.55.62-.83,1.35-1.47,2.26-1.95,1.73-.77,3.47-1.25,5.2-1.45,1.73-.21,3.73-.27,6.03-.23.77.09,1.5.34,2.2.81.69.46,1.21.99,1.54,1.56.81-.63,1.88-1.22,3.19-1.77,1.32-.55,2.72-1,4.21-1.34,1.49-.34,3.03-.58,4.56-.73,1.54-.14,2.95-.13,4.24.06,2.81.62,4.85,1.72,6.1,3.33,1.25,1.59,2.02,3.44,2.26,5.53.24,2.08.11,4.31-.4,6.65-.52,2.35-1.16,4.6-1.92,6.74-.71,2.08-1.34,4.05-1.9,5.89-.56,1.85-.78,3.41-.68,4.65.13,1.25.71,2.12,1.76,2.62,1.06.49,2.81.43,5.29-.23.29.06.52.23.63.49.11.28.16.57.11.91-.03.33-.21.69-.47,1.03-.29.34-.64.59-1.09.75"/>
      <path class="cls-4" d="M943.54,1546.39c-1.12-.16-1.88-.52-2.29-1.02-.4-.52-.57-1.14-.53-1.85.03-.74.24-1.51.61-2.35.37-.85.76-1.63,1.16-2.35,1.12-1.7,1.72-3.45,1.8-5.21.1-1.5.24-3.02.4-4.53.15-1.54.29-3.08.38-4.62-.01-.39-.02-.75-.05-1.07-.02-.33-.02-.66-.02-1.01-.17-.69-.45-1.17-.83-1.48-.39-.3-.76-.69-1.1-1.16-1.12-1.01-1.55-2.15-1.32-3.38.23-1.23,1.08-2.35,2.57-3.41,1.06-.64,2.35-1.24,3.9-1.81,1.53-.57,3.04-.94,4.54-1.12,1.49-.2,2.78-.1,3.87.29,1.1.37,1.75,1.19,1.92,2.45.16.5.22,1.5.18,3.01-.03,1.49-.1,3.19-.21,5.11-.11,1.91-.23,3.89-.38,5.93-.15,2.05-.24,3.86-.24,5.44-.05,1.64.48,3.03,1.62,4.17.7.7,1.11,1.48,1.24,2.34.13.87,0,1.71-.38,2.55-.36.84-.99,1.58-1.84,2.26-.84.68-1.89,1.16-3.13,1.47-2.32.48-4.38.89-6.17,1.22-1.79.33-3.69.39-5.72.16M957.68,1498.14c.46.73.68,1.52.67,2.33-.01.82-.19,1.61-.57,2.36-.38.77-.95,1.47-1.72,2.08-.76.62-1.64,1.09-2.63,1.41-2.02.49-3.92.52-5.73.05-1.8-.47-3.03-1.49-3.67-3.06-.28-.71-.37-1.46-.28-2.22.11-.76.38-1.46.84-2.1.46-.66,1.04-1.23,1.75-1.72.69-.51,1.52-.88,2.43-1.14,1.77-.45,3.46-.53,5.07-.24,1.62.29,2.89,1.03,3.85,2.25"/>
      <path class="cls-4" d="M984.55,1525.84c-.77,1.48-1.05,2.62-.8,3.43.23.83,1.07,1.42,2.49,1.78.93.23,2.08.31,3.46.27,1.38-.05,2.69-.26,3.94-.67,1.26-.39,2.37-.97,3.31-1.76.92-.79,1.4-1.79,1.45-3.02.01-1.41-.67-2.27-2.02-2.56-1.92-.14-3.72-.22-5.46-.29-1.72-.05-3.34-.14-4.88-.25-1.54-.11-3.01-.26-4.43-.47-1.42-.18-2.78-.49-4.08-.9-1.84-.81-3.09-1.96-3.73-3.46-.66-1.48-.83-3.07-.57-4.77.27-1.69.98-3.38,2.09-5.07,1.13-1.68,2.56-3.12,4.31-4.33,1.38-1.09,3.31-2.12,5.77-3.14,2.46-1.01,5.12-1.8,7.96-2.36,2.82-.55,5.63-.77,8.39-.63,2.77.12,5.17.8,7.15,2.07,1.21.84,1.85,2,1.93,3.48.06,1.47-.48,2.95-1.63,4.44-.64.77-1.44,1.44-2.35,2.03-.91.59-1.86,1.04-2.84,1.37-.99.33-1.96.53-2.96.59-1,.06-1.88-.08-2.66-.43-1.22-.52-1.87-1.35-1.99-2.5-.03-.56-.2-1.1-.45-1.6-.28-.5-.72-.77-1.38-.87-1.07-.17-2.09.03-3.09.62-.99.57-1.77,1.28-2.31,2.08-.53.8-.77,1.64-.69,2.49.09.85.68,1.46,1.8,1.83.95.37,1.94.58,2.96.64,1.02.07,2.03.09,3.07.06,1.03-.05,2.06-.08,3.1-.1,1.03-.05,2.02-.05,3.02-.01,2.5.04,4.65.53,6.46,1.49,1.79.96,3.14,2.48,4.02,4.6.45,1,.61,2.15.49,3.42-.13,1.29-.43,2.57-.91,3.88-.48,1.3-1.16,2.56-2,3.74-.85,1.21-1.77,2.2-2.76,3-1.26,1.16-3.13,2.3-5.66,3.39-2.5,1.11-5.24,2.04-8.21,2.77-2.97.73-5.91,1.22-8.83,1.45-2.93.22-5.41.05-7.4-.51-1.39-.15-2.55-.61-3.47-1.35-.92-.76-1.6-1.67-2-2.72-.41-1.04-.53-2.18-.33-3.39.21-1.23.72-2.38,1.61-3.47.6-.79,1.34-1.48,2.26-2.09.92-.6,1.91-1.1,2.96-1.48,1.03-.39,2.07-.65,3.07-.78,1.01-.13,1.95-.11,2.8.05"/>
      <path class="cls-4" d="M1027.88,1527.86c-1.15-.01-1.95-.24-2.42-.7-.46-.46-.72-1.04-.79-1.77-.05-.72.05-1.51.3-2.4.24-.9.53-1.72.83-2.5.91-1.84,1.26-3.64,1.07-5.41-.08-1.52-.16-3.03-.21-4.57-.07-1.53-.15-3.07-.25-4.61-.06-.37-.13-.72-.2-1.05-.08-.34-.13-.67-.17-1-.25-.66-.6-1.11-1.02-1.35-.41-.24-.85-.56-1.25-.99-1.26-.86-1.84-1.92-1.79-3.17.07-1.24.77-2.49,2.1-3.74.98-.78,2.18-1.55,3.64-2.34,1.45-.77,2.92-1.34,4.36-1.75,1.46-.4,2.74-.47,3.89-.25,1.15.22,1.91.94,2.25,2.16.22.48.4,1.46.58,2.95.17,1.49.33,3.18.51,5.09.15,1.92.3,3.89.44,5.94.14,2.04.3,3.85.51,5.42.17,1.63.91,2.94,2.18,3.91.8.59,1.32,1.31,1.56,2.15.25.84.24,1.7-.02,2.58-.26.87-.77,1.71-1.52,2.49-.76.78-1.73,1.42-2.92,1.91-2.26.8-4.25,1.48-5.98,2.07-1.73.56-3.63.9-5.67.95M1035.32,1478.07c.56.65.9,1.4,1,2.21.09.82.02,1.63-.25,2.45-.27.8-.75,1.57-1.42,2.3-.69.72-1.49,1.31-2.45,1.77-1.92.77-3.83,1.06-5.7.83-1.86-.2-3.22-1.05-4.06-2.52-.38-.68-.57-1.39-.59-2.16,0-.76.18-1.51.55-2.21.37-.71.86-1.34,1.49-1.95.63-.58,1.39-1.08,2.27-1.46,1.69-.7,3.36-1.01,5.02-.94,1.65.04,3.03.61,4.13,1.69"/>
      <path class="cls-4" d="M1097.58,1493.69c.49,1.45.59,2.89.28,4.36-.3,1.48-.9,2.87-1.77,4.17-.87,1.29-1.95,2.45-3.23,3.48-1.3,1.01-2.62,1.76-3.97,2.2-1.37.45-2.73.58-4.07.39-1.34-.2-2.5-.84-3.5-1.92-2.07,2.34-4.38,4.32-6.91,5.91-2.54,1.62-5.05,2.66-7.54,3.2-2.47.53-4.75.44-6.87-.28-2.09-.71-3.72-2.22-4.9-4.51-1.31-2.84-2-5.91-2.11-9.21-.12-3.28.41-6.49,1.55-9.6,1.11-3.12,2.84-6.02,5.14-8.74,2.32-2.7,5.26-4.9,8.83-6.61,1.34-.49,2.77-.69,4.27-.61,1.48.08,2.79.1,3.92.05.5-1.23,1.24-2.22,2.18-2.98.93-.75,1.94-1.4,3.02-1.96,1.75-.85,3.28-1.06,4.64-.63,1.35.4,2.23,1.38,2.59,2.92.75,3.69,1.33,7.43,1.71,11.23.38,3.79.92,7.35,1.63,10.63.24.25.45.54.64.85.2.3.56.36,1.11.17.53-.23.83-.53.87-.93.07-.37.14-.76.21-1.15-.14-.76-.13-1.31.05-1.64.17-.32.41-.49.72-.5.31-.01.61.16.91.46.29.3.49.72.6,1.24M1076.97,1485.05c-.71.03-1.53.19-2.48.47-.94.27-1.87.63-2.78,1.09-.91.46-1.7,1.01-2.38,1.62-.7.63-1.18,1.3-1.45,2.01-1.17,2.23-1.78,4.32-1.8,6.3,0,1.98.44,3.51,1.36,4.64.65.93,1.48,1.33,2.49,1.25,1.01-.09,2.03-.46,3.05-1.14,1.04-.68,2.01-1.53,2.88-2.55.89-1.05,1.5-2.05,1.85-3-.25-2.03-.37-3.89-.34-5.56.03-1.65-.1-3.36-.4-5.14"/>
      <path class="cls-4" d="M1155.26,1479.05c-1.47,1.63-3.19,3.18-5.15,4.63-1.95,1.46-3.92,2.58-5.89,3.39-1.96.79-3.8,1.11-5.5.98-1.7-.13-3.07-.95-4.1-2.45-.7-1.01-1.22-2.26-1.52-3.74-.3-1.49-.51-3.1-.61-4.82-.09-1.73-.18-3.47-.24-5.22-.07-1.75-.2-3.36-.38-4.83-.2-1.48-.53-2.76-1-3.83-.48-1.09-1.15-1.8-2.04-2.15-.24-.24-.65-.35-1.22-.32-.55.03-1.16.16-1.79.38-.66.23-1.27.49-1.88.82-.61.3-1.09.6-1.45.88-1.11,1.04-1.54,2.18-1.3,3.45.47,2.19,1.01,4.34,1.61,6.42.58,2.07,1.1,4.27,1.54,6.58.1.59.31,1.07.63,1.42.31.39.83.57,1.54.57,1.02.09,1.8.47,2.34,1.17.55.71.78,1.61.67,2.72.26,1.03-.16,2.14-1.29,3.31-1.14,1.16-2.58,2.26-4.36,3.32-1.78,1.05-3.7,1.98-5.73,2.8-2.04.85-3.82,1.45-5.33,1.82-1.71.23-2.92-.13-3.61-1.03-.71-.91-.72-2.23-.06-3.98.32-.83.72-1.68,1.23-2.52.5-.86.64-1.69.39-2.46-.63-2.47-1.27-4.92-1.92-7.35-.64-2.43-1.25-4.95-1.83-7.49-.11-.37-.24-.64-.35-.85-.14-.2-.46-.28-1-.23-1.06.01-1.88-.29-2.51-.91-.63-.62-1.03-1.38-1.2-2.26-.16-.87-.11-1.81.16-2.8.26-.99.73-1.88,1.41-2.66,1.37-1.39,2.82-2.49,4.39-3.33,1.56-.84,3.44-1.67,5.63-2.48.76-.22,1.54-.23,2.38-.08.83.17,1.52.46,2.03.88.54-.92,1.34-1.87,2.38-2.88,1.05-1.01,2.21-1.97,3.5-2.86,1.29-.87,2.64-1.68,4.04-2.4,1.41-.72,2.76-1.25,4.04-1.57,2.89-.49,5.24-.25,7,.76,1.78,1,3.18,2.44,4.18,4.28,1.01,1.86,1.69,3.97,2.08,6.35.38,2.39.6,4.72.67,7,.09,2.21.22,4.28.38,6.22.15,1.92.52,3.46,1.08,4.56.57,1.12,1.43,1.71,2.61,1.77,1.19.06,2.85-.68,4.95-2.23.31-.06.56,0,.78.21.23.22.36.48.45.8.09.33.06.72-.08,1.15-.13.42-.38.8-.76,1.1"/>
      <path class="cls-4" d="M1180.88,1430.44c-3.17,1.68-5.21,1.07-6.19-1.79-.44-1.31-.56-2.57-.36-3.84.2-1.25.85-2.45,1.98-3.6-.79-1.91-1.35-3.72-1.71-5.45-.34-1.72-.48-3.24-.41-4.55.24-1.91.84-3.74,1.79-5.49.95-1.73,2.1-3.3,3.47-4.65,1.38-1.36,2.87-2.48,4.47-3.36,1.61-.87,3.15-1.44,4.59-1.69,1.62-.22,2.98-.03,4.12.63,1.15.67,2.04,1.69,2.72,3.08.38.59.6,1.33.68,2.2.08.88.05,1.7-.13,2.42-.16.72-.41,1.31-.77,1.75-.34.44-.75.54-1.17.32-1.38-1.62-2.94-1.58-4.69.14-.5.54-.81,1.08-.91,1.63-.09.57-.06,1.12.09,1.68.15.55.37,1.09.65,1.58.26.49.49.94.64,1.37.75-.53,1.47-1.06,2.22-1.57.77-.49,1.45-.7,2.03-.66.57.04,1.09.25,1.5.64.44.4.79.9,1.04,1.53.28.62.47,1.23.63,1.81.33.99.45,1.77.36,2.37-.1.6-.33,1.1-.67,1.53-.34.41-.76.78-1.25,1.08-.47.32-.97.72-1.45,1.24.34.97.76,2.23,1.26,3.75.49,1.53,1.07,3.02,1.73,4.49.66,1.47,1.43,2.74,2.32,3.81.9,1.09,1.95,1.68,3.15,1.75.76.06,1.4.36,1.93.89.53.56.95,1.25,1.27,2.07.31.82.45,1.7.39,2.66-.06.95-.31,1.87-.72,2.74-.67.92-1.66,1.95-2.99,3.08-1.34,1.15-2.73,2.23-4.24,3.26-1.52,1.03-2.97,1.93-4.4,2.7-1.42.77-2.56,1.26-3.42,1.47-1.06.24-2,.17-2.82-.18-.84-.37-1.5-.92-2-1.63-.51-.72-.79-1.56-.9-2.54-.1-.99.02-2,.38-3.09.45-1.12.55-2.44.28-3.94-.29-1.47-.7-2.94-1.26-4.39-.55-1.42-1.16-2.8-1.81-4.1-.64-1.3-1.14-2.35-1.45-3.16"/>
      <path class="cls-4" d="M1248.35,1396.34c.54,1.64.93,3.33,1.16,5.06.24,1.72.18,3.47-.15,5.21-.34,1.78-1.01,3.58-2.02,5.43-1.01,1.84-2.48,3.7-4.47,5.6-2.19,2.12-4.38,4-6.56,5.63-2.19,1.62-4.78,3.16-7.72,4.56-1.82.79-3.48,1.19-4.97,1.19s-2.87-.29-4.1-.84c-1.22-.56-2.34-1.37-3.31-2.4-1-1.03-1.85-2.19-2.56-3.48-.99-1.93-1.88-3.91-2.7-5.95-.81-2.04-1.58-4.12-2.31-6.25-.86-2.89-.81-5.95.09-9.21.9-3.23,2.59-6.12,5.06-8.68,2.35-2.08,4.39-3.86,6.14-5.31,1.76-1.46,3.66-2.85,5.67-4.16,1.54-.84,3.05-1.48,4.57-1.92,1.49-.44,2.92-.68,4.26-.7,1.33-.02,2.57.17,3.68.57,1.12.41,2.08,1.02,2.86,1.84.99.97,1.86,2.03,2.62,3.18.76,1.16,1.42,2.35,2.02,3.58.61,1.23,1.14,2.46,1.57,3.66.44,1.22.83,2.32,1.15,3.35M1231.32,1396.26c-.43-.8-.89-1.55-1.39-2.25-.49-.7-1.03-1.2-1.64-1.53-.62-.34-1.27-.44-1.97-.32-.72.14-1.55.57-2.49,1.34-1.24,1.12-1.91,2.32-2.01,3.61-.08,1.27-.02,2.53.19,3.73.49,2.15,1.26,4.26,2.31,6.35,1.04,2.1,2.04,4.05,3.01,5.88.85,1.19,1.84,1.99,2.91,2.35,1.09.38,2.32.04,3.69-1.06,1.16-1.03,1.86-2.25,2.1-3.67.26-1.41.21-2.68-.15-3.77-.62-2.01-1.32-3.88-2.09-5.63-.78-1.75-1.6-3.42-2.46-5.04"/>
      <path class="cls-4" d="M1290.26,1356.93c.68,1.6,1.21,3.25,1.6,4.96.38,1.71.47,3.47.29,5.26-.2,1.81-.71,3.69-1.56,5.65-.86,1.95-2.19,3.98-4.02,6.1-2.02,2.35-4.06,4.47-6.13,6.33-2.06,1.86-4.51,3.65-7.36,5.37-1.76.96-3.39,1.54-4.9,1.69-1.49.16-2.89.02-4.18-.41-1.29-.44-2.46-1.14-3.54-2.08-1.08-.92-2.04-2-2.88-3.22-1.15-1.83-2.21-3.72-3.22-5.68-.99-1.96-1.93-3.97-2.84-6.02-1.11-2.82-1.34-5.9-.7-9.26.63-3.34,2.08-6.41,4.35-9.23,2.18-2.33,4.09-4.32,5.73-5.96s3.42-3.23,5.35-4.75c1.47-1.01,2.94-1.8,4.42-2.41,1.47-.59,2.88-.98,4.24-1.15,1.34-.17,2.6-.1,3.76.2,1.16.3,2.16.81,3.02,1.56,1.08.85,2.04,1.83,2.9,2.91.86,1.08,1.65,2.2,2.34,3.38.71,1.2,1.33,2.37,1.87,3.53.56,1.17,1.03,2.25,1.46,3.25M1273.12,1358.63c-.52-.76-1.03-1.47-1.58-2.12-.55-.64-1.15-1.1-1.79-1.37-.63-.26-1.31-.3-2.02-.1-.7.21-1.49.75-2.39,1.6-1.15,1.26-1.72,2.52-1.7,3.82.02,1.3.17,2.54.52,3.73.67,2.1,1.63,4.14,2.85,6.13,1.22,2.01,2.41,3.86,3.53,5.59.96,1.11,2,1.79,3.14,2.07,1.12.25,2.32-.21,3.59-1.44,1.09-1.16,1.7-2.47,1.83-3.9.11-1.46-.05-2.71-.49-3.78-.79-1.95-1.65-3.75-2.57-5.43-.93-1.67-1.9-3.27-2.89-4.8"/>
      <path class="cls-4" d="M1323.73,1332.35c-.68,3.14-1.8,6.04-3.4,8.72-1.57,2.68-3.57,4.88-5.94,6.6-2.86,1.83-5.52,2.58-8.04,2.3-2.49-.28-4.71-1.24-6.66-2.84-1.95-1.61-3.56-3.66-4.82-6.12-1.27-2.43-2.12-4.94-2.57-7.46-.63-3.24-.51-6.43.33-9.59.85-3.16,2.34-6.27,4.44-9.38,1.1-1.64,2.32-3.02,3.67-4.15,1.34-1.11,2.65-1.8,3.93-2.09-.24-.58-.64-1.25-1.21-1.99-.56-.74-1.17-1.46-1.84-2.16-.67-.72-1.33-1.34-2.01-1.92-.68-.56-1.23-.98-1.65-1.26-1.6-.55-2.64-1.44-3.2-2.65-.55-1.21-.25-2.8.85-4.75.75-1.29,1.64-2.65,2.71-4.13,1.06-1.46,2.18-2.71,3.36-3.76,1.17-1.04,2.38-1.73,3.59-2.07,1.21-.31,2.32,0,3.38.96,1.65,1.87,3.31,3.88,4.95,5.98,1.63,2.12,3.24,4.26,4.79,6.41,1.56,2.14,3.07,4.26,4.5,6.36,1.46,2.09,2.85,4.02,4.21,5.81.28.39.61.82.96,1.26.38.45.77.85,1.17,1.23.41.37.84.59,1.31.68.47.09.96-.02,1.44-.34.78-.5,1.47-.83,2.1-.97.63-.16,1.24-.03,1.84.35.7.64,1.12,1.41,1.26,2.33.15.93.18,1.93.11,3.01-.25,2.22-.84,4.31-1.77,6.26-.91,1.95-2.05,3.8-3.43,5.55-.37.53-.76.99-1.18,1.42-.43.42-.85.84-1.29,1.22-1.08.83-2.08,1.38-3.02,1.61-.94.23-1.91.09-2.89-.43M1310.43,1314.93c-.36-.46-.67-.68-.95-.68-.26,0-.67.18-1.17.56-1.53,1.16-2.58,2.46-3.19,3.87-.6,1.45-.87,2.89-.83,4.33.07,1.46.41,2.86,1.03,4.23.63,1.37,1.42,2.5,2.38,3.41,1,1.38,2.15,2.16,3.45,2.35,1.31.2,2.5-.01,3.56-.64,1.09-.62,1.93-1.58,2.55-2.89.62-1.3.77-2.84.44-4.57-1.39-2.08-2.69-3.89-3.85-5.42-1.16-1.56-2.31-3.07-3.41-4.55"/>
      <path class="cls-4" d="M1429.44,504.55c21.92,36.65,40.12,75.24,54.62,115.12h10.75c-14.92-41.72-33.84-82.03-56.71-120.29l-8.66,5.17Z"/>
      <path class="cls-4" d="M259.81,499.38c-22.86,38.26-41.8,78.59-56.71,120.31h10.75c14.5-39.89,32.7-78.49,54.62-115.14l-8.66-5.17Z"/>
      <rect class="cls-4" x="1422.04" y="891.88" width="240.85" height="10.08"/>
      <rect class="cls-4" x="35.02" y="891.88" width="240.85" height="10.08"/>
      <path class="cls-4" d="M33.45,852.02c0-3.71,2.27-6.15,5.65-6.15s6.32,2.27,6.4,6.82c-3.11,5.06,2.8,11.23,10.55,11.23,6.83,0,12.9-4.9,12.9-11.82,0-16.79-35.16-19.57-35.16-37.19,0-8.42,8.1-14.34,20.76-14.34,11.79,0,21.06,5.14,21.06,12.49,0,3.63-2.26,6.14-5.64,6.14s-6.33-2.34-6.41-6.82c3.12-5.06-2.79-11.31-10.73-11.31-6.32.09-11.21,4.21-11.21,9.53,0,14.42,35.25,17.97,35.25,37.11,0,9.7-9.27,16.79-22.93,16.79-11.48,0-20.5-4.97-20.5-12.48"/>
      <path class="cls-4" d="M107.37,863.58h-1.11c-6.22,0-10.36-4.13-10.36-10.39v-26.3c0-2.54-1.02-5.49-2.54-7.51l-.17-.18h1.19c6.16,0,10.37,4.15,10.37,10.38v26.24c0,2.53.92,5.57,2.45,7.51l.17.25ZM95.06,801.43h5.4c3.03,0,5.05,2.1,5.05,4.97v5.49h-5.41c-3.02,0-5.04-2.03-5.04-5.06v-5.4Z"/>
      <path class="cls-4" d="M155.21,834.05c0-7.74-3.62-12.22-10.13-12.22s-10.68,4.21-10.95,10.97v23.02c0,2.53.92,5.57,2.46,7.51l.16.25h-1.1c-6.23,0-10.36-4.13-10.36-10.39v-26.31c0-2.53-1.02-5.48-2.53-7.5l-.18-.18h1.19c5.81,0,9.86,3.64,10.29,9.21,2.26-6.25,8.69-10.13,16.11-10.13,9.86,0,14,6.84,14,16.63v20.91c0,2.53.92,5.57,2.43,7.51l.18.25h-1.19c-6.15,0-10.38-4.13-10.38-10.39v-19.14Z"/>
      <path class="cls-4" d="M203.83,818.29c5.98,0,16.19,2.79,16.19,10.21,0,3.2-1.94,5.23-4.72,5.23s-5.24-1.94-5.24-5.65c2.46-4.15-.84-9.19-6.05-9.28-6.84.09-12.07,9.02-12.07,19.81s5.13,19.66,15.34,19.66c4.47,0,9.44-1.69,11.82-6.83l.52.43c-2.2,8.51-9.46,12.65-16.55,12.65-10.87,0-19.99-9.53-19.99-23.37s8.68-22.68,20.75-22.85"/>
      <path class="cls-4" d="M245.45,841.99c1,9.19,6.14,16.28,15.17,16.28,4.47,0,9.45-1.69,11.82-6.84l.51.43c-2.21,8.52-9.45,12.65-16.54,12.65-10.87,0-19.98-9.53-19.98-23.36,0-12.83,8.1-22.85,21-22.85,11.47.15,18.97,8.92,18.97,22.85v.84h-30.95ZM267.46,841.15c-.18-13.84-3.55-21.94-10.38-21.94-8.69,0-11.31,13.42-11.63,21.94h22.01Z"/>
      <path class="cls-4" d="M1450.93,856.75c2.45,0,5.64-.75,7.84-1.77l1.6-.93-1.78,9.8h-35.68v-1.78c0-18.14,29.36-35,29.36-51.7,0-5.07-2.62-9.11-7.42-9.11-6.07,0-10.29,6.31-7.18,11.37-.08,4.49-3.11,6.83-6.41,6.83s-5.66-2.53-5.66-6.24c0-7.51,9.37-12.31,18.57-12.31,10.28-.09,16.96,5.99,16.96,14.5,0,19.99-35.94,31.8-36.79,41.33h26.58Z"/>
      <path class="cls-4" d="M1518.15,800.83c12.82,0,21.43,12.74,21.43,31.55s-8.69,32.39-21.6,32.39-21.93-13.17-21.93-32.06,9.45-31.89,22.1-31.89M1517.73,864.26c7.42,0,12.89-13.24,12.89-32.21s-5.13-30.78-12.56-30.78-13.16,12.39-13.16,31.37,5.32,31.62,12.83,31.62"/>
      <path class="cls-4" d="M1588.91,863.84h-14.17l.18-.25c1.52-1.94,2.51-4.98,2.51-7.51v-41.33c0-2.61-1-5.49-2.51-7.51l-.18-.24c5.07-1.11,7.35-2.38,10.63-5.32h.93v54.39c0,2.53.93,5.57,2.43,7.51l.17.25Z"/>
      <path class="cls-4" d="M1624.47,852.62c0-4.05,2.27-6.49,5.66-6.49s6.3,2.26,6.41,6.82c-3.14,5.06-1.26,11.3,5.4,11.3,9.6,0,12.56-12.89,12.56-29.51,0-2.7-.08-5.06-.33-7.18-1.94,8.61-7.26,13.17-15.19,13.17-10.29,0-17.71-8.01-17.71-19.49,0-12.07,8.18-20.42,19.65-20.42,14.01,0,22.43,12.56,22.43,32.39s-8.5,31.54-22.68,31.54c-9.19,0-16.19-4.9-16.19-12.15M1640.83,801.26c-6.5,0-10.7,8.02-10.7,17.88,0,11.13,5.39,19.81,11.8,19.81,5.29,0,10.86-6.14,11.96-14.66-.67-6.07-3.71-23.02-13.07-23.02"/>
      <path class="cls-3" d="M851.83,40.34c366.11,0,676.18,244.31,775.92,578.43h42.06C1568.87,262.09,1240.39,0,851.83,0S134.8,262.09,33.85,618.77h42.06C175.65,284.64,485.72,40.34,851.83,40.34"/>
      <path class="cls-3" d="M851.83,1659.55c-365.16,0-674.58-243.03-775.14-575.81h-42.08c101.81,355.33,429.63,616.14,817.23,616.14s715.42-260.81,817.23-616.14h-42.08c-100.57,332.78-409.98,575.81-775.14,575.81"/>
      <g>
        <g>
          <path class="cls-3" d="M913.67,309.13c-.36,7.2,1.9,14.86,5.52,19.76l.53.37-3.13.55c-16.31,2.85-26.93-6.58-26.02-23.78l5-91.35-9.83,1.72.06-2.31,9.83-1.72.35-3.28c1.26-25.77,10.29-49.22,37.54-53.98,19.21-3.35,34,4.88,33.16,21.15-.41,9.51-5.96,16-13.33,17.29-7.37,1.29-13.41-2.95-12.89-13.17,7.03-12.51,3.71-26.2-5.89-24.53s-13.54,18.71-15.2,50.08l-.28,2.35,29.27-5.11-.06,2.31-29.27,5.11-5.36,98.55Z"/>
          <g>
            <path class="cls-3" d="M921.72,293.64c2.93-16.62,13.6-34.49,27.88-36.98,15.81-2.76,19.91,12.81,16.91,29.54-.53,2.78-1.23,5.68-2.05,8.41.97.76,2.3.99,3.56.77,5.99-1.23,8.07-5.76,9.25-11.7.26-1.16.45-2.21.67-3.08.13-.86,1.77-1.51,3.39-1.79,1.53-.27,3.03-.16,2.9.7l-.72,3.83c-1.85,10.6-6.46,25.56-19.38,29.48-1.06.28-1.94.52-2.84.68-2.43.42-4.57.33-6.31-.1-4.1,5.16-8.91,8.87-14.21,9.79-17.16,2.99-22.1-12.62-19.04-29.53ZM947.47,302.75c0-1.57.19-3.18.44-4.89.25-1.25.56-2.6.99-3.87.97-2.95,3.29-5.57,5.79-7.12l.71-3.36c1.64-9.17.88-17.74-4.6-16.78-5.12.89-9.54,10.55-11.17,19.81-1.68,9.46-.55,18.61,5.56,17.54.81-.14,1.55-.64,2.27-1.32Z"/>
            <path class="cls-3" d="M977.05,283.98c2.93-16.62,13.6-34.49,27.88-36.98,15.81-2.76,19.91,12.81,16.91,29.54-.53,2.78-1.23,5.68-2.05,8.41.97.76,2.3.99,3.56.77,5.99-1.23,8.07-5.76,9.25-11.7.26-1.16.45-2.21.67-3.08.13-.86,1.77-1.51,3.39-1.79,1.53-.27,3.03-.16,2.9.7l-.72,3.83c-1.85,10.6-6.46,25.56-19.38,29.48-1.06.28-1.94.52-2.84.68-2.43.42-4.57.33-6.31-.1-4.1,5.16-8.91,8.87-14.21,9.79-17.16,2.99-22.1-12.62-19.04-29.53ZM1002.8,293.09c0-1.57.19-3.18.44-4.89.25-1.25.56-2.6.99-3.87.97-2.95,3.29-5.57,5.79-7.12l.71-3.36c1.64-9.17.88-17.74-4.6-16.78-5.12.89-9.54,10.55-11.17,19.81-1.68,9.46-.55,18.61,5.56,17.54.81-.14,1.55-.64,2.27-1.32Z"/>
            <path class="cls-3" d="M1065.25,294.5c-3.95,4.95-8.61,8.45-13.82,9.35-17.07,2.98-22.01-12.63-19.04-29.53,3.02-16.63,13.69-34.51,27.97-37,4.13-.72,7.55-.21,10.14,1.38l.36-2.19c2.32-12.71,1.27-20.31,2.06-24.79.33-1.82,2.61-3.05,5.49-3.55,5.66-.99,13.57.87,12.52,6.51l-7.72,43.28c-1.67,9.55-2.74,22.51,2.83,21.53,5.93-1.03,9.46-13.68,10.55-19.61.13-.86,1.77-1.51,3.39-1.79,1.53-.27,3.03-.16,2.9.7l-.81,4.4c-2.01,11.27-6.91,33.05-22.54,35.77-7.72,1.35-12.12-.48-14.29-4.45ZM1065.99,264.29c1.64-9.17.96-17.85-4.52-16.89-5.12.89-9.45,10.54-11.18,19.72-1.67,9.55-.53,18.7,5.58,17.63,4.22-.74,8.46-10.92,10.13-20.46Z"/>
          </g>
        </g>
        <g>
          <g>
            <path class="cls-3" d="M685.75,291.81c-3.96,4.86-8.63,8.36-13.75,9.25-17.16,2.99-22.01-12.63-19.04-29.53,2.93-16.62,13.6-34.49,27.97-37,8.08-1.41,13.13,2.06,15.76,8.08,4.52.41,8.77,2.54,8.03,6.74l-1.74,9.65c-1.58,9.53-2.11,18.69,3.55,17.71,6.83-1.19,9.37-13.67,10.46-19.6.13-.86,1.77-1.51,3.39-1.79,1.53-.27,3.03-.16,2.9.7l-.81,4.4c-2.01,11.27-6.91,33.05-22.54,35.77-7.72,1.35-12.03-.49-14.18-4.37ZM686.25,262.84c1.74-9.65.92-19.13-4.2-18.24-5.12.89-9.54,10.55-11.17,19.81-1.68,9.46-.55,18.61,5.56,17.54,4.31-.75,8.15-10.03,9.81-19.11Z"/>
            <path class="cls-3" d="M713.22,259.89l.45-2.21c.13-.86,1.86-1.53,3.48-1.81l4.8-26.57.18-.03c.76-4.67,11.13-9.44,18.13-10.66,3.86-.67,6.71-.25,6.36,1.94-2.77,15.39,10.85,17.63,11.36,36.43.09,2.11-.09,4.27-.46,6.37-2.26,12.52-11.68,24.81-24.89,27.11-24.7,4.31-21.22-20.27-19.41-30.58ZM735.55,264.79c.17-1.14.24-2.36.11-3.63-.62-6.19-5.86-11.84-9.7-17.93l-3.35,16.87c-.16.68-1.35,1.25-2.67,1.67.07,5.73,1.86,12.26,8.06,11.18,3.86-.67,6.8-3.96,7.55-8.17Z"/>
            <path class="cls-3" d="M762.91,249.74l3.23-18.06c-3.73.37-4.45.5-5.6.24-1.34-.23-1.54-1.95-1.14-3.87.39-2.57,1.82-5.5,2.85-5.96s1.96-.99,5.9-2.23c2.18-12.41,1.33-19.95,2.05-24.33.33-1.82,2.61-3.05,5.49-3.55,5.66-.99,13.57.87,12.52,6.51l-3.25,18.52c1.57,0,2.53.21,3.35.62,1.04.65,1.24,2.84.88,5.03-.76,4.11-2.84,5.49-6.43,6.12l-2.36,13c-1.67,9.55-2.74,22.51,2.92,21.52,5.84-1.02,9.37-13.67,10.46-19.6.13-.86,1.77-1.51,3.39-1.79,1.53-.27,3.03-.16,2.9.7l-.85,4.68c-2,11.36-6.87,32.76-22.5,35.49-19.67,3.43-17.2-14.21-13.82-33.04Z"/>
          </g>
          <path class="cls-3" d="M641.64,288.18c-.36,7.2,1.9,14.86,5.52,19.76l.53.37-3.13.55c-16.31,2.85-26.93-6.58-26.02-23.78l5-91.35-9.83,1.72.06-2.31,9.83-1.72.35-3.28c1.26-25.77,10.29-49.22,37.54-53.98,19.21-3.35,34,4.88,33.16,21.15-.41,9.51-5.96,16-13.33,17.29-7.37,1.29-13.41-2.95-12.89-13.17,7.03-12.51,3.71-26.2-5.89-24.53-10.05,1.75-13.54,18.71-15.2,50.08l-.28,2.35,29.27-5.11-.06,2.31-29.27,5.11-5.36,98.55Z"/>
        </g>
        <path class="cls-3" d="M818,272.84l-4.83-20.18,64.41-7.9,4.83,20.18-64.41,7.9Z"/>
      </g>
    </g>
  </g>
</svg>